<?xml version="1.0" encoding="utf-8"?>
<!-- Generator: Adobe Illustrator 16.0.0, SVG Export Plug-In . SVG Version: 6.00 Build 0)  -->
<!DOCTYPE svg PUBLIC "-//W3C//DTD SVG 1.1//EN" "http://www.w3.org/Graphics/SVG/1.1/DTD/svg11.dtd">
<svg version="1.1" id="Layer_1" xmlns="http://www.w3.org/2000/svg" xmlns:xlink="http://www.w3.org/1999/xlink" x="0px" y="0px"
	 width="612px" height="192.5px" viewBox="0 298.5 612 192.5" enable-background="new 0 298.5 612 192.5" xml:space="preserve">
<g>
	<path fill="#FFFFFF" d="M472.494,352.536c6.794,20.544,13.516,40.871,20.238,61.197c0.172,0.018,0.343,0.033,0.514,0.051
		c6.507-20.361,13.013-40.723,19.523-61.099c8.428,0,16.748,0,25.283,0c-1.572,4.239-3.098,8.364-4.632,12.487
		c-11.022,29.62-22.025,59.248-33.09,88.851c-2.406,6.436-5.96,12.069-12.216,15.507c-4.839,2.658-10.154,3.589-15.559,3.666
		c-5.753,0.082-11.511-0.292-17.399-0.471c0-6.846,0-13.406,0-20.234c2.577,0.209,5.099,0.432,7.623,0.61
		c1.596,0.113,3.197,0.234,4.796,0.22c7.636-0.068,12.462-5.867,11.112-13.415c-0.302-1.687-0.857-3.348-1.457-4.96
		c-7.916-21.287-15.881-42.557-23.762-63.857c-0.589-1.591-1.324-2.206-3.02-2.052c-1.84,0.167-3.707,0.038-5.791,0.038
		c0,24.332,0,48.579,0,72.948c-8.268,0-16.307,0-24.576,0c0-24.252,0-48.498,0-72.845c-3.075,0-5.92,0-8.926,0
		c0,24.296,0,48.496,0,72.833c-8.199,0-16.239,0-24.482,0c0-6.532,0-13.1,0-19.76c-0.303,0.142-0.473,0.168-0.495,0.24
		c-3.128,10.029-10.144,16.239-19.899,19.161c-13.325,3.991-26.818,3.918-40.121-0.249c-8.98-2.812-15.742-8.396-19.452-17.279
		c-0.063-0.15-0.199-0.271-0.523-0.698c0,6.368,0,12.409,0,18.596c-7.822,0-15.477,0-23.405,0c0-3.983,0-8.024,0-12.066
		c-0.249-0.156-0.496-0.312-0.745-0.469c-0.167,0.395-0.279,0.824-0.507,1.18c-5.904,9.231-14.802,13.165-25.304,13.662
		c-4.426,0.209-9.007-0.236-13.34-1.193c-11.629-2.569-17.838-10.423-19.674-21.881c-0.697-4.348-1.133-8.782-1.164-13.182
		c-0.128-17.944-0.054-35.893-0.054-53.838c0-0.442,0-0.883,0-1.461c8.152,0,16.192,0,24.517,0c0,0.703,0,1.442,0,2.181
		c0,16.088-0.098,32.176,0.069,48.262c0.042,4.056,0.613,8.175,1.508,12.136c1.398,6.186,5.707,9.422,11.94,9.842
		c2.654,0.179,5.414,0.044,8.014-0.488c7.311-1.498,11.455-6.407,12.735-14.959c0.501-3.344,0.771-6.753,0.79-10.135
		c0.083-14.805,0.036-29.611,0.036-44.417c0-0.762,0-1.523,0-2.422c8.152,0,16.192,0,24.462,0c0,20.109,0,40.253,0,60.56
		c7.377,0,14.528,0,21.825,0c0.1,0.878,0.152,1.619,0.271,2.349c0.787,4.783,3.424,8.293,7.734,10.341
		c6.58,3.127,13.365,3.298,20.091,0.465c1.601-0.674,3.147-1.8,4.332-3.077c4.095-4.416,3.22-10.774-2.146-13.457
		c-3.794-1.896-7.966-3.137-12.075-4.287c-7.019-1.965-14.173-3.453-21.175-5.474c-6.129-1.769-11.757-4.654-15.242-10.317
		c-1.306-2.12-2.307-4.631-2.688-7.082c-2.1-13.527,4.149-24.182,16.931-29.02c8.417-3.186,17.221-3.762,26.112-3.259
		c5.707,0.323,11.338,1.167,16.691,3.318c10.966,4.409,17.905,13.886,18.08,24.764c-7.67,0-15.34,0-22.99,0
		c-0.086-0.144-0.192-0.242-0.202-0.349c-0.581-6.179-4.227-9.45-10.062-10.724c-4.71-1.028-9.422-1.137-14.084,0.08
		c-4.274,1.116-6.438,3.916-6.348,7.787c0.056,2.427,1.173,4.261,3.101,5.672c3.616,2.646,7.878,3.599,12.103,4.643
		c7.326,1.808,14.678,3.516,21.976,5.433c2.205,0.579,4.329,1.582,6.379,2.611c5.385,2.705,9.475,6.684,11.827,12.434
		c0-17.693,0-35.386,0-53.389c11.219,0,22.259,0,33.552,0c0-2.779-0.048-5.256,0.009-7.73c0.171-7.404,2.462-13.952,7.926-19.172
		c4.104-3.923,9.185-5.707,14.66-6.571c6.712-1.061,13.388-0.278,20.162,0.312c0,5.996,0,11.863,0,17.536
		c-2.536,0-4.956-0.002-7.377,0c-0.961,0.001-1.925-0.031-2.883,0.023c-4.884,0.276-7.401,2.646-7.865,7.714
		c-0.226,2.468-0.039,4.974-0.039,7.634C453.904,352.536,463.104,352.536,472.494,352.536z"/>
	<path fill="#FFFFFF" d="M107.591,352.779c0,3.946,0,7.823,0,11.701c0.2,0.144,0.399,0.287,0.599,0.431
		c0.225-0.429,0.394-0.899,0.682-1.282c11.038-14.71,28.476-15.858,41.748-10.173c4.54,1.944,7.749,5.357,10.053,9.667
		c0.299,0.561,0.596,1.124,0.958,1.809c0.367-0.389,0.687-0.673,0.944-1.006c8.625-11.149,19.934-15.346,33.75-13.025
		c1.765,0.296,3.536,0.617,5.258,1.095c11.231,3.121,18.383,11.942,19.454,24.032c0.249,2.803,0.374,5.626,0.378,8.441
		c0.033,18.392,0.017,36.784,0.017,55.176c0,0.756,0,1.513,0,2.385c-8.192,0-16.231,0-24.518,0c0-0.767,0-1.51,0-2.254
		c-0.002-16.662,0.034-33.323-0.04-49.985c-0.015-3.188-0.203-6.422-0.766-9.553c-1.191-6.63-5.667-10.271-12.376-10.76
		c-11.809-0.86-16.872,6.365-17.993,15.591c-0.323,2.662-0.43,5.365-0.437,8.05c-0.039,15.509-0.019,31.016-0.019,46.525
		c0,0.757,0,1.516,0,2.386c-8.191,0-16.23,0-24.517,0c0-0.765,0-1.508,0-2.252c-0.005-17.046,0.026-34.093-0.049-51.139
		c-0.014-2.994-0.192-6.042-0.776-8.969c-1.295-6.486-5.294-9.746-11.919-10.165c-9.719-0.615-17.175,5.47-18.476,15.147
		c-0.263,1.96-0.392,3.954-0.396,5.933c-0.031,16.342-0.017,32.683-0.017,49.023c0,0.761,0,1.521,0,2.409
		c-8.167,0-16.206,0-24.381,0c0-29.687,0-59.387,0-89.235C92.23,352.779,99.756,352.779,107.591,352.779z"/>
	<path fill="#FFFFFF" d="M58.929,352.89c8.017,0,16.059,0,24.229,0c0,29.687,0,59.317,0,89.104c-7.991,0-16.029,0-24.229,0
		C58.929,412.391,58.929,382.706,58.929,352.89z"/>
	<path fill="#FFFFFF" d="M559.107,415.861c0,8.785,0,17.412,0,26.161c-9,0-17.929,0-26.997,0c0-8.659,0-17.331,0-26.161
		C541.02,415.861,549.993,415.861,559.107,415.861z"/>
	<path fill="#FFFFFF" d="M83.13,339.003c-8.145,0-16.13,0-24.238,0c0-6.693,0-13.315,0-20.077c8.018,0,16.049,0,24.238,0
		C83.13,325.528,83.13,332.196,83.13,339.003z"/>
	<path fill="#FFFFFF" d="M386.757,318.854c8.131,0,16.116,0,24.228,0c0,6.688,0,13.31,0,20.077c-8.004,0-16.034,0-24.228,0
		C386.757,332.34,386.757,325.673,386.757,318.854z"/>
	<g>
		<path fill="#FFFFFF" d="M403.289,464.654c-0.504,2.497-1.336,4.372-2.496,5.62c-1.16,1.249-2.679,1.874-4.555,1.874
			c-0.81,0-1.545-0.213-2.207-0.637c-0.661-0.425-1.2-1.018-1.614-1.778l-0.71,2.103h-3.066l4.621-23.104h3.54l-1.688,8.457
			c0.543-0.543,1.138-0.958,1.784-1.244s1.341-0.429,2.081-0.429c1.757,0,3.051,0.846,3.88,2.539s0.993,3.789,0.489,6.287
			L403.289,464.654z M399.81,464.342c0.355-1.777,0.362-3.201,0.021-4.272c-0.341-1.07-1.083-1.606-2.229-1.606
			c-0.623,0-1.202,0.195-1.741,0.586c-0.538,0.39-1.019,0.921-1.443,1.592l-1.377,6.873c0.197,0.543,0.525,0.963,0.984,1.259
			c0.459,0.297,1.054,0.444,1.785,0.444c1.057,0,1.902-0.397,2.539-1.192c0.637-0.794,1.104-1.918,1.4-3.369L399.81,464.342z"/>
		<path fill="#FFFFFF" d="M411.479,472.148c-2.055,0-3.612-0.751-4.674-2.251c-1.062-1.501-1.404-3.401-1.028-5.702l0.089-0.593
			c0.385-2.42,1.315-4.374,2.792-5.865c1.477-1.49,3.162-2.231,5.058-2.222c1.965,0,3.394,0.659,4.288,1.978
			c0.893,1.318,1.167,3.069,0.822,5.251l-0.341,2.118h-9.256c-0.139,1.348,0.034,2.419,0.518,3.21
			c0.484,0.793,1.288,1.188,2.415,1.188c0.84,0,1.609-0.12,2.311-0.361c0.7-0.24,1.383-0.577,2.043-1.011l0.74,2.36
			c-0.642,0.534-1.456,0.985-2.444,1.352C413.824,471.967,412.714,472.148,411.479,472.148z M413.257,458.404
			c-0.751,0-1.439,0.353-2.066,1.059c-0.627,0.705-1.088,1.602-1.385,2.688l0.029,0.074h5.569l0.06-0.37
			c0.158-1.057,0.064-1.896-0.281-2.519C414.838,458.714,414.195,458.404,413.257,458.404z"/>
		<path fill="#FFFFFF" d="M428.379,451.917l-0.785,3.895h2.65l-0.533,2.666h-2.65l-1.763,8.856c-0.148,0.711-0.12,1.194,0.081,1.452
			c0.202,0.257,0.521,0.385,0.955,0.385c0.237,0,0.494-0.017,0.771-0.051c0.276-0.035,0.522-0.082,0.74-0.141l-0.163,2.636
			c-0.375,0.169-0.812,0.299-1.311,0.393c-0.498,0.094-1.015,0.141-1.549,0.141c-1.175,0-2.063-0.396-2.666-1.186
			c-0.603-0.789-0.735-1.999-0.399-3.629l1.763-8.856h-2.237l0.534-2.666h2.236l0.785-3.895H428.379z"/>
		<path fill="#FFFFFF" d="M439.117,471.836c-0.04-0.335-0.062-0.666-0.067-0.992s0.008-0.651,0.037-0.978
			c-0.612,0.662-1.315,1.207-2.11,1.637c-0.795,0.429-1.617,0.645-2.466,0.645c-1.413,0-2.476-0.442-3.192-1.325
			c-0.716-0.884-0.926-2.052-0.629-3.503c0.326-1.648,1.125-2.881,2.399-3.695c1.273-0.814,2.962-1.222,5.064-1.222h2.341
			l0.28-1.407c0.179-0.888,0.097-1.558-0.244-2.007c-0.342-0.449-0.926-0.674-1.755-0.674c-0.701,0-1.323,0.199-1.867,0.6
			c-0.543,0.399-0.873,0.905-0.992,1.519h-3.392l-0.029-0.09c0.217-1.342,0.981-2.483,2.296-3.421
			c1.313-0.938,2.898-1.406,4.754-1.406c1.639,0,2.933,0.483,3.881,1.451c0.947,0.968,1.249,2.319,0.903,4.059l-1.422,7.124
			c-0.148,0.71-0.239,1.357-0.274,1.939c-0.034,0.583-0.013,1.165,0.067,1.748L439.117,471.836L439.117,471.836z M435.873,469.26
			c0.651,0,1.317-0.179,2-0.534c0.681-0.355,1.219-0.785,1.613-1.288l0.563-2.784h-2.399c-0.849,0-1.595,0.262-2.236,0.785
			c-0.642,0.522-1.032,1.13-1.17,1.821c-0.139,0.651-0.072,1.147,0.199,1.489C434.715,469.089,435.191,469.26,435.873,469.26z"/>
	</g>
</g>
</svg>
